<svg width="64" height="81" viewBox="0 0 64 81" fill="none" xmlns="http://www.w3.org/2000/svg">
<g clip-path="url(#clip0)">
<path d="M62.6286 0.817823C60.9055 2.24012 52.4308 7.75153 20.3605 52.234C20.1143 52.554 19.6923 53.194 19.0945 53.194L18.0747 52.7318C17.5473 52.3762 4.14948 42.8112 1.61761 41.0689C0.597829 40.3578 0.246181 40.0733 0.0351923 40.2511C-0.140632 40.3933 0.211016 40.9622 0.703324 41.8156C1.19563 42.5979 7.31431 52.9807 12.6594 63.1857C17.2308 71.8973 20.8176 79.0799 20.9583 79.3643C21.4506 80.3244 21.8374 81.0711 22.3649 81.0711C23.1385 81.0711 23.2791 80.3244 23.7715 79.1154C24.2638 77.8709 37.5561 40.8556 63.2967 1.38674C63.6835 0.782265 64.1407 0.106673 63.9648 0H63.9297C63.7539 0 63.1561 0.42669 62.6286 0.817823Z" fill="#28386C"/>
</g>
<defs>
<clipPath id="clip0">
<rect width="64" height="81" fill="white"/>
</clipPath>
</defs>
</svg>
