<svg width="58" height="77" viewBox="0 0 58 77" fill="none" xmlns="http://www.w3.org/2000/svg">
<path d="M57.8449 0.348767C57.7674 0.271263 57.6899 0.116256 57.5348 0.116256C57.2247 -0.0387519 56.8371 -0.0387519 56.6045 0.116256C56.527 0.193759 56.4495 0.271263 56.3719 0.348767C56.1394 0.658782 55.8292 0.968797 55.5967 1.20131C55.2866 1.51132 55.054 1.82134 54.7439 2.13135C54.5888 2.28636 54.4338 2.51887 54.2787 2.67388C54.2787 2.67388 54.2787 2.75138 54.2012 2.75138C53.8911 3.1389 53.5034 3.52642 53.1158 3.91394C52.3405 4.76648 51.4877 5.69653 50.635 6.70408C50.2473 7.1691 49.7822 7.63412 49.3945 8.09914C48.9294 8.56417 48.5417 9.10669 48.0766 9.57172C47.6114 10.1142 47.1462 10.6568 46.6811 11.1218C46.2159 11.6643 45.7508 12.2068 45.2081 12.8269C44.7429 13.4469 44.2002 13.9894 43.7351 14.6095C43.1924 15.2295 42.7272 15.8495 42.1845 16.4696C41.6418 17.0896 41.0991 17.7096 40.5565 18.4071C40.0138 19.0272 39.4711 19.7247 38.9284 20.3447C38.3857 21.0423 37.7655 21.7398 37.2228 22.3598C36.6801 23.0574 36.0599 23.7549 35.5172 24.4524C34.897 25.15 34.3543 25.925 33.7341 26.6225C33.1139 27.3976 32.4937 28.0951 31.951 28.8702C31.3308 29.6452 30.7106 30.4202 30.0903 31.1953C29.4701 31.9703 28.8499 32.7453 28.2297 33.5204C27.6095 34.2954 26.9893 35.148 26.369 35.923C25.7488 36.7755 25.0511 37.5506 24.4309 38.4031C23.8107 39.2557 23.1129 40.1082 22.4927 40.8832C21.8725 41.7358 21.1747 42.5883 20.5545 43.4409C20.2444 43.8284 19.9343 44.2934 19.6242 44.6809C19.3141 45.0684 19.0815 45.456 18.6939 45.766C18.2287 46.1535 17.6085 46.4635 16.9883 46.541C16.5231 46.541 16.058 46.4635 15.5928 46.3085C15.2052 46.1535 14.8175 45.8435 14.5074 45.611C13.7322 45.0684 12.9569 44.6034 12.1816 44.0609C11.3288 43.5184 10.5536 42.9758 9.70077 42.4333C8.84798 41.8908 7.99518 41.3483 7.14239 40.8057C6.21206 40.2632 5.35927 39.7207 4.50647 39.1782C3.65368 38.6356 2.80088 38.0931 1.87056 37.5506C1.4054 37.2406 0.785183 37.3181 0.397549 37.7056C0.00991495 38.0931 -0.145139 38.7131 0.164969 39.1782C3.65368 45.5335 7.06486 52.0438 10.321 58.3991C13.1895 64.0569 16.1355 69.9472 19.0815 75.9924C19.3916 76.6125 20.0118 77 20.7871 77C21.5624 77 22.1826 76.535 22.4927 75.9149V75.8374C25.1286 69.6371 27.8421 63.4368 30.5555 57.469C40.4014 35.6905 49.317 17.3221 57.8449 1.35632C57.9225 1.20131 58 1.0463 58 0.81379C58 0.658782 57.9225 0.503775 57.8449 0.348767Z" fill="#28386C"/>
</svg>
