<svg width="58" height="77" viewBox="0 0 58 77" fill="none" xmlns="http://www.w3.org/2000/svg"><path d="M57.845.349c-.078-.078-.155-.233-.31-.233-.31-.155-.698-.155-.93 0l-.233.233c-.233.31-.543.62-.775.852-.31.31-.543.62-.853.93-.155.155-.31.388-.465.543 0 0 0 .077-.078.077-.31.388-.698.775-1.085 1.163-.776.852-1.628 1.783-2.481 2.79-.388.465-.853.93-1.24 1.395-.466.465-.853 1.008-1.318 1.473-.466.542-.93 1.085-1.396 1.55-.465.542-.93 1.085-1.473 1.705-.465.62-1.008 1.162-1.473 1.783-.543.62-1.008 1.24-1.55 1.86-.543.62-1.086 1.24-1.629 1.937-.542.62-1.085 1.318-1.628 1.938-.542.697-1.162 1.395-1.705 2.015-.543.697-1.163 1.395-1.706 2.092-.62.698-1.163 1.473-1.783 2.17-.62.776-1.24 1.473-1.783 2.248l-1.86 2.325-1.861 2.325c-.62.775-1.24 1.628-1.861 2.403-.62.852-1.318 1.628-1.938 2.48-.62.853-1.318 1.705-1.938 2.48-.62.853-1.318 1.705-1.938 2.558-.31.387-.62.852-.93 1.24-.31.387-.544.775-.931 1.085-.465.388-1.085.698-1.706.775-.465 0-.93-.077-1.395-.232-.388-.155-.775-.465-1.086-.698-.775-.543-1.55-1.008-2.325-1.55-.853-.543-1.628-1.085-2.481-1.628l-2.559-1.627a79.067 79.067 0 01-2.636-1.628 78.36 78.36 0 00-2.635-1.627 1.174 1.174 0 00-1.473.155c-.388.387-.543 1.007-.233 1.472 3.489 6.355 6.9 12.866 10.156 19.221a1246.129 1246.129 0 018.76 17.593c.31.62.93 1.008 1.706 1.008.775 0 1.396-.465 1.706-1.085v-.078c2.636-6.2 5.35-12.4 8.063-18.368C40.4 35.69 49.316 17.322 57.844 1.356c.078-.155.155-.31.155-.542 0-.155-.078-.31-.155-.465z" fill="#28386C"/></svg>