<svg width="64" height="81" viewBox="0 0 64 81" fill="none" xmlns="http://www.w3.org/2000/svg"><g clip-path="url(#clip0)"><path d="M62.629.818C60.906 2.24 52.43 7.752 20.36 52.234c-.246.32-.668.96-1.265.96l-1.02-.462c-.528-.356-13.926-9.92-16.457-11.663-1.02-.711-1.372-.996-1.583-.818-.176.142.176.711.668 1.565.493.782 6.611 11.165 11.956 21.37a970.714 970.714 0 018.3 16.178c.492.96.878 1.707 1.406 1.707.774 0 .914-.747 1.407-1.956.492-1.244 13.784-38.26 39.525-77.728.387-.605.844-1.28.668-1.387h-.035c-.176 0-.774.427-1.301.818z" fill="#28386C"/></g><defs><clipPath id="clip0"><path fill="#fff" d="M0 0h64v81H0z"/></clipPath></defs></svg>