<svg width="58" height="72" viewBox="0 0 58 72" fill="none" xmlns="http://www.w3.org/2000/svg"><path d="M56.767.724c-1.577 1.262-9.247 6.157-38.3 45.68-.214.28-.59.848-1.137.848l-.932-.413c-.486-.315-12.63-8.804-14.92-10.35-.92-.618-1.257-.87-1.44-.733-.146.129.147.64.611 1.377.435.697 5.977 9.924 10.836 18.977 4.133 7.734 7.381 14.113 7.524 14.38.448.857.798 1.51 1.27 1.51.692 0 .831-.666 1.262-1.723.45-1.08 12.506-33.966 35.817-69.033.35-.533.762-1.124.61-1.23L57.935 0c-.165 0-.694.378-1.169.724z" fill="#fff"/></svg>